<?xml version="1.0" encoding="UTF-8"?>
<!DOCTYPE svg PUBLIC "-//W3C//DTD SVG 1.1//EN" "http://www.w3.org/Graphics/SVG/1.1/DTD/svg11.dtd">
<!-- Creator: CorelDRAW X7 -->
<svg xmlns="http://www.w3.org/2000/svg" xml:space="preserve" width="90mm" height="90mm" version="1.1" style="shape-rendering:geometricPrecision; text-rendering:geometricPrecision; image-rendering:optimizeQuality; fill-rule:evenodd; clip-rule:evenodd"
viewBox="0 0 9000 9000"
 xmlns:xlink="http://www.w3.org/1999/xlink">
 <defs>
  <style type="text/css">
   <![CDATA[
    .fil1 {fill:#21A900}
    .fil2 {fill:#A5A5A5}
    .fil0 {fill:#E3E3E3}
   ]]>
  </style>
 </defs>
 <g id="Camada_x0020_1">
  <metadata id="CorelCorpID_0Corel-Layer"/>
  <g id="_848265088">
   <path class="fil0" d="M6435 4872l-94 -478 716 -8 -98 493 -524 -7zm-2161 -4438l486 0c378,21 743,91 1041,212 115,48 -7,-14 57,61 -267,102 -476,376 -539,761 -121,730 285,1491 676,2046 98,138 415,518 553,585 -417,-754 -955,-1634 -871,-2554 27,-300 185,-700 380,-791 68,13 90,26 152,58 19,10 48,27 65,39 42,30 16,7 36,33 -407,629 58,2727 345,3265l130 5c110,-176 300,-919 353,-1155 100,-446 177,-900 160,-1377 82,59 47,66 135,119 97,109 231,243 304,387 -70,378 -196,718 -338,1051 -125,292 -481,893 -488,912 240,-132 445,-418 621,-674 299,-434 367,-719 457,-853l70 146c-144,308 -455,705 -680,978 -57,70 -48,71 -120,145 -50,51 -79,91 -128,167 253,-134 720,-752 917,-1071l73 -94c119,166 218,603 267,852 57,285 77,701 49,1059 -129,1648 -1442,3154 -3092,3498 -191,39 -389,65 -588,76l-498 0c-310,-18 -611,-68 -884,-149 -585,-173 -1193,-524 -1586,-902 -776,-748 -1236,-1715 -1236,-2880 123,63 197,177 295,275 97,97 180,183 274,282 699,746 1464,1477 2193,2253 139,148 105,148 363,196 717,135 1621,353 2294,440 -14,-188 -379,-1856 -449,-2180 -84,-389 -153,-393 -545,-781l-657 -640c-443,-444 -870,-889 -1301,-1345l-1286 -1317 67 -100c413,-393 1076,-749 1636,-905 258,-72 545,-117 837,-133zm685 1297c-1,-491 380,-933 721,-1025 -212,202 -442,359 -545,765 -95,379 19,749 166,1068 138,302 325,584 488,809 180,248 436,512 573,699l-133 -106c-4,-4 -10,-9 -14,-12l-100 -86c-91,-90 -135,-169 -220,-257 -402,-416 -935,-1312 -936,-1855z"/>
   <path class="fil1" d="M1241 2139c108,56 1574,1539 1766,1730l1314 1292c238,237 176,161 169,691 -628,5 -406,116 -1100,-580 -371,-373 -2141,-2182 -2493,-2503 -29,28 -11,-1 -42,59 -211,402 -302,1109 -302,1561 123,63 197,177 295,275 97,97 180,183 274,282 699,746 1464,1477 2193,2253 139,148 105,148 363,196 717,135 1621,353 2294,440 -14,-188 -379,-1856 -449,-2180 -84,-389 -153,-393 -545,-781l-657 -640c-443,-444 -870,-889 -1301,-1345l-1286 -1317c-72,34 -90,49 -142,114 -54,66 -58,80 -120,144 -67,70 -188,228 -231,309z"/>
   <path class="fil0" d="M897 2769c352,321 2122,2130 2493,2503 694,696 472,585 1100,580 7,-530 69,-454 -169,-691l-1314 -1292c-192,-191 -1658,-1674 -1766,-1730 -84,93 -315,489 -344,630z"/>
   <path class="fil2" d="M7433 1741c-4,-6 -10,-22 -12,-17 -2,4 -10,-14 -13,-18 -2,-3 -9,-12 -12,-17 -3,-4 -9,-11 -12,-15l-457 -416c-137,-101 -443,-340 -617,-374 -407,629 58,2727 345,3265l130 5c110,-176 300,-919 353,-1155 100,-446 177,-900 160,-1377 82,59 47,66 135,119z"/>
   <path class="fil2" d="M6057 754c-32,-24 -1,-4 -51,-30 -31,-16 -33,-18 -72,-35 -46,-19 -80,-32 -133,-43 115,48 -7,-14 57,61 -267,102 -476,376 -539,761 -121,730 285,1491 676,2046 98,138 415,518 553,585 -417,-754 -955,-1634 -871,-2554 27,-300 185,-700 380,-791z"/>
   <path class="fil2" d="M7989 2564c-24,-123 -177,-363 -252,-436 -70,378 -196,718 -338,1051 -125,292 -481,893 -488,912 240,-132 445,-418 621,-674 299,-434 367,-719 457,-853z"/>
   <path class="fil2" d="M4959 1731c1,543 534,1439 936,1855 85,88 129,167 220,257l100 86c4,3 10,8 14,12l133 106c-137,-187 -393,-451 -573,-699 -163,-225 -350,-507 -488,-809 -147,-319 -261,-689 -166,-1068 103,-406 333,-563 545,-765 -341,92 -722,534 -721,1025z"/>
   <polygon class="fil2" points="6435,4872 6959,4879 7057,4386 6341,4394 "/>
   <path class="fil2" d="M8121 2835c-4,-44 7,-20 -13,-61 -47,-99 4,-16 -49,-64 -144,308 -455,705 -680,978 -57,70 -48,71 -120,145 -50,51 -79,91 -128,167 253,-134 720,-752 917,-1071l73 -94z"/>
  </g>
 </g>
</svg>
