<?xml version="1.0" encoding="UTF-8"?>
<!DOCTYPE svg PUBLIC "-//W3C//DTD SVG 1.1//EN" "http://www.w3.org/Graphics/SVG/1.1/DTD/svg11.dtd">
<!-- Creator: CorelDRAW X7 -->
<svg xmlns="http://www.w3.org/2000/svg" xml:space="preserve" width="297mm" height="210mm" version="1.1" style="shape-rendering:geometricPrecision; text-rendering:geometricPrecision; image-rendering:optimizeQuality; fill-rule:evenodd; clip-rule:evenodd"
viewBox="0 0 29700 21000"
 xmlns:xlink="http://www.w3.org/1999/xlink">
 <defs>
  <style type="text/css">
   <![CDATA[
    .fil0 {fill:#75D0F1}
    .fil5 {fill:#121212}
    .fil1 {fill:#1572B6}
    .fil2 {fill:#33A9DC}
    .fil4 {fill:#EAEAEA}
    .fil3 {fill:#FEFEFE}
   ]]>
  </style>
 </defs>
 <g id="Camada_x0020_1">
  <metadata id="CorelCorpID_0Corel-Layer"/>
  <g id="_848268256">
   <ellipse class="fil0" cx="21486" cy="6541" rx="2814" ry="2875"/>
   <path class="fil1" d="M21501 8232l-905 -252 -61 -693 441 0 33 349 499 135c-26,-117 -7,-553 -7,-704l-486 0 -34 -395 -7 -49c82,-26 410,-3 527,-11l0 -431c-184,-27 -979,24 -1065,-12l-36 -437 1101 -1 0 -411 1441 0 -273 3081 -1167 321 -1 -490zm-1766 -3156c0,46 12,55 12,107 1,53 9,64 12,107l213 2456c5,61 23,153 25,214 2,67 7,167 18,230 11,57 13,158 17,221 3,43 12,52 12,107 0,56 11,71 12,118 54,2 292,74 357,94l1091 299c34,0 311,-85 363,-100 179,-54 1033,-273 1081,-308l39 -448c1,-60 20,-152 24,-213 5,-68 5,-170 16,-233 23,-121 60,-734 79,-906 7,-58 23,-154 24,-214l99 -1135c9,-49 43,-423 35,-447 -143,-27 -3120,-8 -3529,-8l0 59z"/>
   <path class="fil2" d="M21501 5731c187,-2 374,0 560,0 73,0 525,-17 546,13l-200 2222c-25,27 -6,16 -50,30l-835 229 -21 7 1 490 1167 -321 273 -3081 -1441 0 0 411z"/>
   <path class="fil3" d="M21506 6170l620 1 -46 454 -567 2 0 428c92,0 184,0 275,0 77,0 256,-17 272,27 0,71 0,24 -18,47l-47 505 -487 137c-14,72 -7,150 -7,225l-1 178c5,64 -7,24 22,51l835 -229c44,-14 25,-3 50,-30l200 -2222 -1101 0 0 426z"/>
   <path class="fil4" d="M21501 8232l21 -7c-29,-27 -17,13 -22,-51l1 -178c0,-75 -7,-153 7,-225l-499 -135 -33 -349 -441 0 61 693 905 252z"/>
   <path class="fil4" d="M20436 6169l1070 1 0 -426 1101 0c-21,-30 -473,-13 -546,-13 -186,0 -373,-2 -560,0l-1101 1 36 437z"/>
   <path class="fil2" d="M21508 7771l487 -137 47 -505 -1 -61 -540 -1c0,151 -19,587 7,704z"/>
   <path class="fil5" d="M21147 4174l2 45 295 308 -297 3 0 190 629 0c0,-225 46,-113 -296,-483l285 -3 0 -167 -618 0 0 107z"/>
   <path class="fil5" d="M21883 4162l1 45 296 320 -297 3 0 190 629 0 -1 -175c-48,-47 -274,-270 -282,-309l271 -2 0 -167 -617 0 0 95z"/>
   <path class="fil2" d="M20981 6672l-1 -42 533 -3 567 -2 46 -454 -620 -1 -1070 -1c86,36 881,-15 1065,12l0 431c-117,8 -445,-15 -527,11l7 49z"/>
   <polygon class="fil5" points="20483,4720 21029,4720 21029,4518 20720,4518 20720,4245 21029,4245 21029,4067 20483,4067 "/>
   <path class="fil4" d="M20981 6672l34 395 486 0 540 1 1 61c18,-23 18,24 18,-47 -16,-44 -195,-27 -272,-27 -91,0 -183,0 -275,0l0 -428 -533 3 1 42z"/>
  </g>
 </g>
</svg>
