<?xml version="1.0" encoding="UTF-8"?>
<!DOCTYPE svg PUBLIC "-//W3C//DTD SVG 1.1//EN" "http://www.w3.org/Graphics/SVG/1.1/DTD/svg11.dtd">
<!-- Creator: CorelDRAW X7 -->
<svg xmlns="http://www.w3.org/2000/svg" xml:space="preserve" width="90mm" height="90mm" version="1.1" style="shape-rendering:geometricPrecision; text-rendering:geometricPrecision; image-rendering:optimizeQuality; fill-rule:evenodd; clip-rule:evenodd"
viewBox="0 0 9000 9000"
 xmlns:xlink="http://www.w3.org/1999/xlink">
 <defs>
  <style type="text/css">
   <![CDATA[
    .fil5 {fill:#121212}
    .fil1 {fill:#1572B6}
    .fil2 {fill:#33A9DC}
    .fil0 {fill:#75D0F1}
    .fil4 {fill:#EAEAEA}
    .fil3 {fill:#FEFEFE}
   ]]>
  </style>
 </defs>
 <g id="Camada_x0020_1">
  <metadata id="CorelCorpID_0Corel-Layer"/>
  <g id="_848268256">
   <circle class="fil0" cx="4525" cy="4532" r="4000"/>
   <path class="fil1" d="M4547 6884l-1287 -350 -87 -964 627 0 47 485 710 188c-37,-163 -10,-769 -10,-980l-691 0 -49 -549 -10 -68c117,-36 583,-4 750,-16l0 -599c-262,-38 -1392,33 -1514,-17l-51 -608 1565 -1 0 -572 2048 0 -388 4286 -1659 447 -1 -682zm-2511 -4391c0,64 17,77 17,149 2,74 13,89 17,149l303 3417c7,85 33,213 36,298 3,93 10,232 25,320 16,79 19,220 24,307 5,60 17,73 17,149 0,78 16,99 18,164 76,3 415,103 507,131l1551 416c48,0 442,-118 516,-139 254,-75 1468,-380 1536,-428l56 -624c1,-83 28,-211 34,-296 7,-95 7,-237 23,-324 32,-169 85,-1022 112,-1261 10,-81 33,-214 34,-298l141 -1579c13,-68 61,-588 50,-622 -204,-37 -4435,-11 -5017,-11l0 82z"/>
   <path class="fil2" d="M4547 3405c265,-3 531,0 796,0 103,0 746,-24 776,18l-285 3091c-35,38 -8,22 -71,42l-1187 319 -29 9 1 682 1659 -447 388 -4286 -2048 0 0 572z"/>
   <path class="fil3" d="M4554 4015l881 2 -65 631 -806 3 0 596c130,0 261,0 391,0 109,0 363,-24 386,37 0,99 0,34 -25,66l-67 702 -692 191c-20,100 -10,209 -10,313l-2 248c7,89 -10,33 31,71l1187 -319c63,-20 36,-4 71,-42l285 -3091 -1565 0 0 592z"/>
   <path class="fil4" d="M4547 6884l29 -9c-41,-38 -24,18 -31,-71l2 -248c0,-104 -10,-213 10,-313l-710 -188 -47 -485 -627 0 87 964 1287 350z"/>
   <path class="fil4" d="M3033 4014l1521 1 0 -592 1565 0c-30,-42 -673,-18 -776,-18 -265,0 -531,-3 -796,0l-1565 1 51 608z"/>
   <path class="fil2" d="M4557 6243l692 -191 67 -702 -2 -85 -767 -2c0,211 -27,817 10,980z"/>
   <path class="fil5" d="M4043 1238l3 63 420 429 -423 4 0 264 894 0c0,-313 66,-157 -420,-672l405 -4 0 -232 -879 0 0 148z"/>
   <path class="fil5" d="M5090 1222l1 62 421 446 -422 4 0 264 894 0 -2 -243c-68,-66 -389,-376 -401,-430l386 -3 0 -232 -877 0 0 132z"/>
   <path class="fil2" d="M3807 4714l-1 -59 758 -4 806 -3 65 -631 -881 -2 -1521 -1c122,50 1252,-21 1514,17l0 599c-167,12 -633,-20 -750,16l10 68z"/>
   <polygon class="fil5" points="3100,1998 3876,1998 3876,1717 3436,1717 3436,1337 3876,1337 3876,1090 3100,1090 "/>
   <path class="fil4" d="M3807 4714l49 549 691 0 767 2 2 85c25,-32 25,33 25,-66 -23,-61 -277,-37 -386,-37 -130,0 -261,0 -391,0l0 -596 -758 4 1 59z"/>
  </g>
 </g>
</svg>
