<?xml version="1.0" encoding="UTF-8"?>
<!DOCTYPE svg PUBLIC "-//W3C//DTD SVG 1.1//EN" "http://www.w3.org/Graphics/SVG/1.1/DTD/svg11.dtd">
<!-- Creator: CorelDRAW X7 -->
<svg xmlns="http://www.w3.org/2000/svg" xml:space="preserve" width="297mm" height="210mm" version="1.1" style="shape-rendering:geometricPrecision; text-rendering:geometricPrecision; image-rendering:optimizeQuality; fill-rule:evenodd; clip-rule:evenodd"
viewBox="0 0 29700 21000"
 xmlns:xlink="http://www.w3.org/1999/xlink">
 <defs>
  <style type="text/css">
   <![CDATA[
    .fil5 {fill:black}
    .fil1 {fill:#E44F26}
    .fil3 {fill:#EAEAEA}
    .fil2 {fill:#F0642A}
    .fil0 {fill:#F28253}
    .fil4 {fill:#FEFEFE}
   ]]>
  </style>
 </defs>
 <g id="Camada_x0020_1">
  <metadata id="CorelCorpID_0Corel-Layer"/>
  <g id="_959571056">
   <ellipse class="fil0" cx="14339" cy="7388" rx="2814" ry="2875"/>
   <path class="fil1" d="M14318 9125c-142,-62 -771,-189 -838,-242l-58 -651 420 4 31 329c66,26 391,116 450,113l17 -640 -833 0c-107,1 -87,13 -112,-21 13,-39 -87,-1151 -109,-1261 23,-20 -27,-12 31,-17l1023 0 2 -404 1368 0 -261 2922 -1109 305 -22 -437zm-1646 -3064c-15,31 58,748 69,844l46 528c2,152 63,599 68,754l34 439c16,137 28,281 44,417l34 439c69,1 260,68 340,87 135,34 986,285 1033,285 66,0 1285,-370 1373,-372 0,-50 9,-160 18,-207l135 -1508c13,-68 38,-511 59,-640 10,-62 6,-156 14,-222 11,-99 84,-808 71,-848 -71,-24 -2130,-8 -2503,-8 -128,0 -770,-24 -835,12z"/>
   <path class="fil2" d="M13286 6756l1052 0 1051 -1 -37 420 -1013 0 0 427 974 0 -119 1277c-41,43 -151,53 -214,72l-642 175 -20 -1 22 437 1109 -305 261 -2922 -1368 0 -2 404 -1023 0c-58,5 -8,-3 -31,17z"/>
   <path class="fil3" d="M13395 8017l943 4 1 -419c-93,0 -496,11 -554,-7l-37 -420 591 0 -1 -419 -1052 0c22,110 122,1222 109,1261z"/>
   <path class="fil4" d="M14338 8021l512 1 -43 535c-50,37 -387,114 -469,133l0 436 642 -175c63,-19 173,-29 214,-72l119 -1277 -974 0 -1 419z"/>
   <path class="fil3" d="M14318 9125l20 1 0 -436 -15 -12c-59,3 -384,-87 -450,-113l-31 -329 -420 -4 58 651c67,53 696,180 838,242z"/>
   <polygon class="fil4" points="14339,7175 15352,7175 15389,6755 14338,6756 "/>
   <path class="fil5" d="M14374 5768l214 0 0 -293c31,23 104,157 138,200 25,-14 76,-105 105,-148l36 -50 6 284c85,14 130,8 221,7l0 -619 0 0 -240 0c-4,1 -2,5 -13,17 -33,37 -68,129 -110,171l-121 -187 -236 -1 0 619z"/>
   <path class="fil2" d="M14323 8678l15 12c82,-19 419,-96 469,-133l43 -535 -512 -1 -943 -4c25,34 5,22 112,21l833 0 -17 640z"/>
   <polygon class="fil5" points="12978,5768 13192,5768 13192,5554 13384,5554 13384,5768 13597,5768 13597,5149 13384,5149 13384,5329 13192,5329 13192,5149 12978,5149 "/>
   <path class="fil1" d="M14339 7602l0 -427 -591 0 37 420c58,18 461,7 554,7z"/>
   <polygon class="fil5" points="13687,5340 13877,5341 13879,5768 14093,5768 14093,5342 14284,5340 14284,5149 13687,5149 "/>
   <polygon class="fil5" points="15195,5768 15713,5768 15713,5554 15409,5554 15409,5149 15195,5149 "/>
  </g>
 </g>
</svg>
