<?xml version="1.0" encoding="UTF-8"?>
<!DOCTYPE svg PUBLIC "-//W3C//DTD SVG 1.1//EN" "http://www.w3.org/Graphics/SVG/1.1/DTD/svg11.dtd">
<!-- Creator: CorelDRAW X7 -->
<svg xmlns="http://www.w3.org/2000/svg" xml:space="preserve" width="90mm" height="90mm" version="1.1" style="shape-rendering:geometricPrecision; text-rendering:geometricPrecision; image-rendering:optimizeQuality; fill-rule:evenodd; clip-rule:evenodd"
viewBox="0 0 9000 9000"
 xmlns:xlink="http://www.w3.org/1999/xlink">
 <defs>
  <style type="text/css">
   <![CDATA[
    .fil5 {fill:black}
    .fil1 {fill:#E44F26}
    .fil3 {fill:#EAEAEA}
    .fil2 {fill:#F0642A}
    .fil0 {fill:#F28253}
    .fil4 {fill:#FEFEFE}
   ]]>
  </style>
 </defs>
 <g id="Camada_x0020_1">
  <metadata id="CorelCorpID_0Corel-Layer"/>
  <g id="_959571056">
   <circle class="fil0" cx="4570" cy="4505" r="4000"/>
   <path class="fil1" d="M4540 6922c-201,-87 -1095,-263 -1191,-337l-82 -906 597 6 44 458c94,36 556,161 640,157l24 -891 -1184 0c-152,2 -124,18 -160,-29 19,-54 -123,-1601 -154,-1754 32,-28 -39,-17 44,-24l1454 0 3 -562 1944 0 -371 4065 -1576 425 -32 -608zm-2339 -4263c-22,43 82,1040 98,1174l65 735c3,211 90,833 97,1049l48 610c23,191 40,391 63,581l48 610c98,2 370,95 483,121 192,48 1402,397 1469,397 94,0 1826,-515 1951,-518 0,-69 13,-222 26,-288l192 -2098c18,-94 54,-711 84,-890 14,-86 8,-217 20,-309 15,-138 119,-1124 101,-1180 -101,-33 -3028,-11 -3558,-11 -182,0 -1095,-33 -1187,17z"/>
   <path class="fil2" d="M3074 3626l1495 0 1494 -2 -53 585 -1440 0 0 594 1385 0 -169 1776c-59,60 -215,74 -304,101l-913 243 -29 -1 32 608 1576 -425 371 -4065 -1944 0 -3 562 -1454 0c-83,7 -12,-4 -44,24z"/>
   <path class="fil3" d="M3228 5380l1341 6 1 -583c-132,0 -705,15 -787,-10l-53 -584 840 0 -1 -583 -1495 0c31,153 173,1700 154,1754z"/>
   <path class="fil4" d="M4569 5386l728 1 -61 744c-71,52 -551,159 -667,185l0 607 913 -243c89,-27 245,-41 304,-101l169 -1776 -1385 0 -1 583z"/>
   <path class="fil3" d="M4540 6922l29 1 0 -607 -21 -16c-84,4 -546,-121 -640,-157l-44 -458 -597 -6 82 906c96,74 990,250 1191,337z"/>
   <polygon class="fil4" points="4570,4209 6010,4209 6063,3624 4569,3626 "/>
   <path class="fil5" d="M4620 2251l304 0 0 -408c44,32 148,219 196,279 36,-20 108,-146 150,-206l51 -70 8 395c121,20 185,11 315,10l0 -861 0 0 -342 0c-5,1 -2,7 -18,23 -47,52 -97,180 -156,238l-172 -260 -336 -1 0 861z"/>
   <path class="fil2" d="M4548 6300l21 16c116,-26 596,-133 667,-185l61 -744 -728 -1 -1341 -6c36,47 8,31 160,29l1184 0 -24 891z"/>
   <polygon class="fil5" points="2636,2251 2940,2251 2940,1953 3213,1953 3213,2251 3516,2251 3516,1390 3213,1390 3213,1640 2940,1640 2940,1390 2636,1390 "/>
   <path class="fil1" d="M4570 4803l0 -594 -840 0 53 584c82,25 655,10 787,10z"/>
   <polygon class="fil5" points="3644,1656 3914,1657 3916,2251 4221,2251 4221,1658 4492,1656 4492,1390 3644,1390 "/>
   <polygon class="fil5" points="5787,2251 6523,2251 6523,1953 6091,1953 6091,1390 5787,1390 "/>
  </g>
 </g>
</svg>
